<svg width="138" height="197" viewBox="0 0 138 197" fill="none" xmlns="http://www.w3.org/2000/svg">
  <path d="M83.2243 36.9581C90.4863 35.9334 96.4262 37.8775 101.044 42.79C104.921 46.7913 106.705 50.7304 106.396 54.6066L91.4623 79.155C82.9574 69.5039 71.8041 65.5134 58.0022 67.1839C53.463 67.8013 46.8657 70.8451 38.2112 76.3145C28.8348 82.1626 24.1741 87.0221 24.2288 90.893C24.4325 105.271 48.5425 112.12 96.5589 111.44C107.29 111.288 115.833 110.798 122.188 109.971L136.624 108.107L124.299 143.404C93.603 146.789 70.7577 152.183 55.7635 159.586C46.1892 164.331 34.747 172.052 21.437 182.75L4.97918 195.981C4.61019 195.618 4.42013 195.067 4.40968 194.33C4.29492 186.219 12.8592 174.39 30.1026 158.844C35.8496 153.6 43.9679 148.783 54.4568 144.394C48.2833 145.219 38.2576 143.794 24.3801 140.119C9.0447 136.28 1.33669 131.502 1.25573 125.788C0.599596 105.148 9.0542 85.5772 26.6196 67.0758C43.6502 49.3192 62.5187 39.2795 83.2243 36.9581Z" fill="#E15A0D"/>
</svg>
