<svg width="725" height="302" viewBox="0 0 725 302" fill="none" xmlns="http://www.w3.org/2000/svg" xmlns:xlink="http://www.w3.org/1999/xlink">
<g id="Repeat group 15_inner" data-figma-trr="r7u1-0f">
<g filter="url(#filter0_d_1144_1162)">
<path d="M128.916 26.4802C124.81 28.1314 122.11 30.6122 120.78 34.0636C118.521 39.9424 119.614 48.4729 127.231 63.1975C139.815 87.5863 150.455 93.9262 151.255 108.704C151.4 111.32 151.68 117.52 148.562 124.46C146.359 129.344 143.381 132.654 141.33 134.62C152.57 141.257 166.051 141.785 176.432 135.723C185.337 130.496 189.055 122.17 190.228 119.054C192.203 110.824 194.312 96.3835 189.294 80.2006C185.781 68.8726 180.514 60.5929 167.226 46.4266C157.446 35.9595 148.787 29.3185 141.363 26.4943C137.082 24.887 132.889 24.909 128.828 26.5335L128.916 26.4802ZM164.411 64.06C167.282 77.3999 165.899 90.859 160.191 104.42C143.471 80.74 137.335 63.0125 141.898 51.2281C142.715 49.1096 144.556 47.391 147.518 46.1334C150.41 44.8585 152.76 44.5731 154.614 45.2505C158.754 46.8233 161.993 53.1491 164.411 64.06Z" fill="url(#paint0_linear_1144_1162)"/>
</g>
</g>
<use xlink:href="#Repeat%20group%2015_inner" transform="translate(174.91 -61.2033) rotate(51.4286)"/>
<use xlink:href="#Repeat%20group%2015_inner" transform="translate(331.815 37.3871) rotate(102.857)"/>
<use xlink:href="#Repeat%20group%2015_inner" transform="translate(352.563 221.531) rotate(154.286)"/>
<use xlink:href="#Repeat%20group%2015_inner" transform="translate(221.53 352.563) rotate(-154.286)"/>
<use xlink:href="#Repeat%20group%2015_inner" transform="translate(37.3861 331.815) rotate(-102.857)"/>
<use xlink:href="#Repeat%20group%2015_inner" transform="translate(-61.2039 174.91) rotate(-51.4286)"/>
<path d="M328.388 176.676H329.584L356.041 89.9788H384.741L343.112 207.17L345.429 213.373C347.073 217.708 349.091 220.797 351.483 222.641C353.825 224.534 356.54 225.506 359.629 225.556C362.718 225.606 366.231 225.057 370.167 223.911L376.446 244.989C374.602 245.736 372.135 246.384 369.046 246.932C365.907 247.53 362.494 247.828 358.807 247.828C351.732 247.828 345.653 246.658 340.571 244.316C335.439 242.024 331.103 238.686 327.566 234.301C324.028 229.966 321.188 224.759 319.045 218.68L273.08 89.9788H301.856L328.388 176.676ZM447.187 88.4836C452.717 88.4837 458.224 89.1315 463.704 90.427C469.185 91.7225 474.193 93.8652 478.727 96.8547C483.261 99.7945 486.899 103.806 489.639 108.888C492.429 113.97 493.824 120.323 493.824 127.947V204.779H467.815V189.009H466.918C465.274 192.198 462.957 195.188 459.967 197.978C457.027 200.718 453.315 202.935 448.83 204.629C444.396 206.273 439.189 207.096 433.21 207.096C425.936 207.096 419.384 205.8 413.554 203.209C407.774 200.569 403.19 196.682 399.802 191.55C396.464 186.418 394.794 180.089 394.794 172.566C394.794 166.089 395.99 160.732 398.381 156.497C400.773 152.262 404.037 148.873 408.172 146.332C412.308 143.791 416.967 141.873 422.149 140.577C427.38 139.232 432.787 138.26 438.367 137.662C445.094 136.965 450.55 136.342 454.736 135.794C458.921 135.196 461.96 134.3 463.854 133.104C465.797 131.858 466.768 129.939 466.768 127.349V126.9C466.768 121.27 465.099 116.91 461.761 113.821C458.423 110.731 453.614 109.187 447.336 109.187C440.709 109.187 435.452 110.632 431.566 113.522C427.729 116.412 425.138 119.825 423.793 123.761L398.531 120.173C400.525 113.198 403.813 107.368 408.397 102.685C412.981 97.9513 418.586 94.4134 425.213 92.0715C431.84 89.6799 439.165 88.4836 447.187 88.4836ZM677.795 88.4836C683.326 88.4836 688.832 89.1315 694.313 90.427C699.794 91.7225 704.801 93.8652 709.335 96.8547C713.869 99.7945 717.507 103.806 720.247 108.888C723.037 113.97 724.433 120.323 724.433 127.947V204.779H698.423V189.008H697.527C695.882 192.197 693.565 195.187 690.575 197.977C687.636 200.717 683.924 202.935 679.44 204.629C675.005 206.273 669.799 207.095 663.82 207.095C656.545 207.095 649.992 205.8 644.162 203.209C638.383 200.568 633.799 196.682 630.41 191.55C627.072 186.418 625.403 180.089 625.403 172.566C625.403 166.088 626.599 160.732 628.99 156.496C631.382 152.261 634.646 148.873 638.781 146.332C642.917 143.791 647.576 141.873 652.758 140.577C657.99 139.232 663.396 138.26 668.976 137.662C675.702 136.965 681.159 136.342 685.344 135.794C689.529 135.196 692.569 134.299 694.462 133.103C696.405 131.857 697.377 129.939 697.377 127.348V126.9C697.377 121.269 695.708 116.91 692.369 113.821C689.031 110.731 684.223 109.187 677.945 109.187C671.318 109.187 666.061 110.632 662.175 113.522C658.338 116.412 655.747 119.825 654.402 123.761L629.14 120.173C631.133 113.197 634.421 107.367 639.005 102.684C643.589 97.9505 649.195 94.4134 655.822 92.0715C662.448 89.6799 669.773 88.4837 677.795 88.4836ZM548.085 204.779H521.03V51.7122H548.085V204.779ZM602.962 204.779H575.906V51.7122H602.962V204.779ZM466.843 150.069C465.996 150.766 464.551 151.414 462.508 152.012C460.515 152.61 458.273 153.134 455.781 153.582C453.29 154.031 450.823 154.429 448.382 154.778C445.941 155.126 443.823 155.425 442.03 155.674C437.994 156.222 434.381 157.12 431.193 158.365C428.004 159.611 425.487 161.355 423.644 163.597C421.8 165.789 420.878 168.63 420.878 172.117C420.878 177.1 422.697 180.861 426.334 183.403C429.972 185.944 434.605 187.215 440.236 187.215C445.667 187.215 450.375 186.144 454.362 184.001C458.348 181.809 461.412 178.919 463.555 175.331C465.747 171.744 466.843 167.832 466.843 163.597V150.069ZM697.452 150.069C696.605 150.766 695.16 151.414 693.117 152.012C691.124 152.61 688.882 153.134 686.391 153.582C683.9 154.031 681.433 154.429 678.991 154.778C676.55 155.126 674.433 155.425 672.639 155.674C668.603 156.222 664.99 157.12 661.801 158.365C658.612 159.611 656.096 161.355 654.252 163.597C652.409 165.789 651.488 168.63 651.488 172.117C651.488 177.1 653.306 180.861 656.944 183.403C660.581 185.944 665.215 187.215 670.845 187.215C676.276 187.215 680.985 186.144 684.971 184.001C688.957 181.809 692.021 178.919 694.163 175.331C696.356 171.744 697.452 167.832 697.452 163.597V150.069Z" fill="url(#paint1_linear_1144_1162)"/>
<defs>
<filter id="filter0_d_1144_1162" x="119.737" y="25.3018" width="76.6641" height="118.651" filterUnits="userSpaceOnUse" color-interpolation-filters="sRGB">
<feFlood flood-opacity="0" result="BackgroundImageFix"/>
<feColorMatrix in="SourceAlpha" type="matrix" values="0 0 0 0 0 0 0 0 0 0 0 0 0 0 0 0 0 0 127 0" result="hardAlpha"/>
<feOffset dx="2" dy="2"/>
<feGaussianBlur stdDeviation="1"/>
<feComposite in2="hardAlpha" operator="out"/>
<feColorMatrix type="matrix" values="0 0 0 0 0 0 0 0 0 0 0 0 0 0 0 0 0 0 0.25 0"/>
<feBlend mode="normal" in2="BackgroundImageFix" result="effect1_dropShadow_1144_1162"/>
<feBlend mode="normal" in="SourceGraphic" in2="effect1_dropShadow_1144_1162" result="shape"/>
</filter>
<linearGradient id="paint0_linear_1144_1162" x1="145.609" y1="89.7401" x2="163.644" y2="131.5" gradientUnits="userSpaceOnUse">
<stop stop-color="#012C55"/>
<stop offset="1" stop-color="#04AAE6"/>
</linearGradient>
<linearGradient id="paint1_linear_1144_1162" x1="209.519" y1="220.895" x2="685.912" y2="171.597" gradientUnits="userSpaceOnUse">
<stop offset="0.0865385" stop-color="#26C3FB"/>
<stop offset="0.682692" stop-color="#022D56"/>
</linearGradient>
</defs>
</svg>
