<svg width="2966" height="1058" viewBox="0 0 2966 1058" fill="none" xmlns="http://www.w3.org/2000/svg" xmlns:xlink="http://www.w3.org/1999/xlink">
<g id="Repeat group 13_inner" data-figma-trr="r7u1-0f">
<g filter="url(#filter0_d_1153_1228)">
<path d="M451.528 92.7462C437.149 98.5296 427.692 107.218 423.034 119.307C415.12 139.898 418.948 169.776 445.629 221.349C489.705 306.771 526.97 328.976 529.771 380.736C530.282 389.897 531.259 411.614 520.34 435.923C512.624 453.026 502.194 464.62 495.01 471.507C534.378 494.751 581.596 496.602 617.955 475.369C649.146 457.063 662.169 427.899 666.277 416.985C673.192 388.162 680.579 337.583 663.004 280.902C650.701 241.226 632.253 212.226 585.711 162.609C551.456 125.947 521.127 102.687 495.126 92.7957C480.132 87.1661 465.446 87.2429 451.221 92.933L451.528 92.7462ZM575.852 224.37C585.908 271.093 581.064 318.233 561.072 365.731C502.507 282.791 481.016 220.701 496.999 179.426C499.861 172.006 506.309 165.986 516.684 161.581C526.811 157.116 535.044 156.117 541.536 158.489C556.036 163.998 567.383 186.154 575.852 224.37Z" fill="url(#paint0_linear_1153_1228)"/>
</g>
</g>
<use xlink:href="#Repeat%20group%2013_inner" transform="translate(612.623 -214.366) rotate(51.4286)"/>
<use xlink:href="#Repeat%20group%2013_inner" transform="translate(1162.19 130.947) rotate(102.857)"/>
<use xlink:href="#Repeat%20group%2013_inner" transform="translate(1234.86 775.911) rotate(154.286)"/>
<use xlink:href="#Repeat%20group%2013_inner" transform="translate(775.911 1234.86) rotate(-154.286)"/>
<use xlink:href="#Repeat%20group%2013_inner" transform="translate(130.947 1162.19) rotate(-102.857)"/>
<use xlink:href="#Repeat%20group%2013_inner" transform="translate(-214.366 612.623) rotate(-51.4286)"/>
<path d="M1099.07 236.312C1105.14 234.656 1110.66 235.484 1115.63 238.796C1120.59 241.556 1125.29 246.8 1129.7 254.527L1298.61 519.478L1468.34 254.527C1473.31 246.8 1478 241.556 1482.42 238.796C1487.39 236.036 1492.91 235.208 1498.98 236.312C1505.05 236.864 1512.23 239.899 1520.5 245.419C1532.1 253.699 1538.44 261.427 1539.55 268.603C1541.2 275.778 1538.44 284.334 1531.27 294.27L1336.7 589.855V784.429C1336.7 791.604 1335.87 798.228 1334.21 804.3C1332.56 809.82 1328.97 813.96 1323.45 816.72C1318.48 820.031 1310.48 821.687 1299.44 821.688C1288.4 821.688 1280.12 820.031 1274.6 816.72C1269.63 813.96 1266.04 809.543 1263.83 803.472C1262.18 797.4 1261.35 790.5 1261.35 782.772V589.027L1065.95 295.926C1059.32 285.99 1056.84 277.434 1058.5 270.259C1060.15 262.531 1066.78 254.527 1078.37 246.247C1086.65 240.727 1093.55 237.415 1099.07 236.312ZM2921.31 733.095C2937.87 733.095 2949.19 736.407 2955.26 743.03C2961.88 749.654 2965.19 761.246 2965.19 777.805C2965.19 788.844 2963.81 797.676 2961.05 804.3C2958.29 810.372 2953.6 814.788 2946.98 817.548C2940.9 820.308 2932.35 821.688 2921.31 821.688C2904.75 821.687 2893.16 818.376 2886.54 811.752C2879.91 805.128 2876.6 794.088 2876.6 778.633C2876.6 767.041 2877.98 758.209 2880.74 752.138C2883.5 745.514 2888.19 740.822 2894.81 738.062C2901.44 734.751 2910.27 733.095 2921.31 733.095ZM1849.05 420.121C1859.54 420.121 1866.99 421.777 1871.41 425.089C1876.38 428.401 1879.69 433.093 1881.35 439.165C1883 445.237 1883.83 452.688 1883.83 461.52V781.117C1883.83 788.845 1883 795.745 1881.35 801.816C1879.69 807.888 1876.38 812.304 1871.41 815.063C1866.44 818.375 1858.71 820.031 1848.23 820.031C1836.08 820.031 1827.25 817.548 1821.73 812.58C1816.76 807.612 1813.73 799.884 1812.62 789.396L1815.94 747.998C1810.42 756.83 1801.86 767.041 1790.27 778.633C1778.68 789.672 1763.5 799.608 1744.73 808.439C1725.96 816.719 1703.06 820.859 1676.01 820.859C1649.51 820.859 1624.67 815.615 1601.49 805.128C1578.86 794.64 1558.71 780.012 1541.05 761.245C1523.94 742.478 1510.41 720.951 1500.48 696.664C1491.09 672.377 1486.4 646.433 1486.4 618.834C1486.4 591.787 1491.09 566.396 1500.48 542.661C1510.41 518.374 1524.21 497.123 1541.88 478.907C1559.54 460.692 1579.69 446.34 1602.32 435.853C1625.5 425.365 1650.07 420.121 1676.01 420.121C1700.3 420.121 1721 423.433 1738.11 430.057C1755.22 436.128 1769.84 444.409 1781.99 454.896C1794.68 464.832 1805.72 476.147 1815.11 488.843L1813.45 454.068C1812.9 441.925 1815.38 433.369 1820.9 428.401C1826.98 422.882 1836.36 420.121 1849.05 420.121ZM2013.17 233C2023.66 233 2031.39 234.656 2036.36 237.968C2041.88 240.728 2045.46 244.867 2047.12 250.387C2049.33 255.355 2050.43 261.703 2050.43 269.431V688.384C2050.43 701.079 2052.36 711.843 2056.23 720.675C2060.09 729.506 2065.89 736.13 2073.62 740.546C2081.34 744.962 2090.45 747.17 2100.94 747.17C2109.22 747.17 2115.84 748.274 2120.81 750.481C2125.78 752.689 2129.37 756.554 2131.57 762.073C2133.78 767.593 2134.89 775.045 2134.89 784.429C2134.89 793.26 2133.51 800.436 2130.75 805.956C2128.54 810.924 2124.95 814.512 2119.98 816.72C2115.57 819.48 2109.22 820.859 2100.94 820.859C2084.38 820.859 2069.2 818.927 2055.4 815.063C2042.15 811.752 2030.56 806.784 2020.63 800.16C2010.69 792.984 2002.41 784.153 1995.79 773.665C1989.16 762.625 1984.19 749.93 1980.88 735.578C1978.12 720.675 1976.74 704.116 1976.74 685.9V271.087C1976.74 263.359 1977.57 256.735 1979.23 251.215C1980.88 245.695 1984.19 241.28 1989.16 237.968C1994.68 234.656 2002.69 233 2013.17 233ZM2201.95 233C2212.99 233 2221 234.656 2225.96 237.968C2231.48 240.728 2235.07 244.867 2236.73 250.387C2238.38 255.355 2239.21 261.703 2239.21 269.431V688.384C2239.21 698.319 2240.31 706.875 2242.52 714.051C2244.73 721.227 2248.04 727.575 2252.46 733.095C2257.43 738.062 2263.5 741.651 2270.67 743.858C2277.85 746.066 2286.4 747.17 2296.34 747.17C2305.72 747.17 2313.18 748.274 2318.7 750.481C2324.22 752.689 2328.08 756.554 2330.29 762.073C2333.05 767.593 2334.43 775.045 2334.43 784.429C2334.43 793.26 2333.05 800.436 2330.29 805.956C2327.53 810.924 2323.39 814.512 2317.87 816.72C2312.35 819.48 2305.17 820.859 2296.34 820.859C2279.23 820.859 2263.5 818.927 2249.15 815.063C2235.35 811.752 2223.2 806.508 2212.71 799.332C2202.78 792.156 2194.22 783.048 2187.05 772.009C2179.87 760.969 2174.63 748.274 2171.32 733.923C2168 719.571 2166.35 703.564 2166.35 685.9L2165.52 271.087C2165.52 263.359 2166.35 256.735 2168 251.215C2169.66 245.695 2172.97 241.28 2177.94 237.968C2183.46 234.656 2191.46 233 2201.95 233ZM2752.22 420.121C2762.71 420.121 2770.16 421.777 2774.58 425.089C2779.55 428.401 2782.86 433.093 2784.51 439.165C2786.17 445.237 2787 452.688 2787 461.52V781.117C2787 788.845 2786.17 795.745 2784.51 801.816C2782.86 807.888 2779.55 812.304 2774.58 815.063C2769.61 818.375 2761.88 820.031 2751.39 820.031C2739.25 820.031 2730.42 817.548 2724.9 812.58C2719.93 807.612 2716.9 799.884 2715.79 789.396L2719.1 747.998C2713.58 756.83 2705.03 767.041 2693.44 778.633C2681.85 789.672 2666.67 799.608 2647.9 808.439C2629.13 816.719 2606.22 820.859 2579.18 820.859C2552.68 820.859 2527.84 815.616 2504.66 805.128C2482.03 794.64 2461.88 780.012 2444.22 761.245C2427.11 742.478 2413.58 720.951 2403.65 696.664C2394.26 672.377 2389.57 646.433 2389.57 618.834C2389.57 591.787 2394.26 566.396 2403.65 542.661C2413.58 518.374 2427.38 497.123 2445.04 478.907C2462.71 460.692 2482.86 446.34 2505.49 435.853C2528.67 425.365 2553.23 420.121 2579.18 420.121C2603.46 420.121 2624.16 423.433 2641.27 430.057C2658.39 436.128 2673.01 444.409 2685.16 454.896C2697.85 464.832 2708.89 476.147 2718.28 488.843L2716.62 454.068C2716.07 441.925 2718.55 433.369 2724.07 428.401C2730.14 422.882 2739.53 420.121 2752.22 420.121ZM1686.77 488.015C1660.83 488.015 1638.2 494.087 1618.88 506.23C1600.11 517.822 1585.21 533.554 1574.17 553.425C1563.13 573.296 1557.61 595.927 1557.61 621.318C1557.61 646.157 1563.13 668.513 1574.17 688.384C1585.21 707.703 1600.39 723.158 1619.71 734.75C1639.58 745.79 1662.48 751.31 1688.43 751.31C1710.51 751.31 1730.65 745.514 1748.87 733.923C1767.64 722.331 1782.26 706.875 1792.75 687.556C1803.79 667.684 1809.31 645.053 1809.31 619.662C1809.31 593.719 1803.52 571.088 1791.92 551.769C1780.88 531.897 1765.98 516.442 1747.21 505.402C1729 493.811 1708.85 488.015 1686.77 488.015ZM2589.94 488.015C2564 488.015 2541.37 494.087 2522.05 506.23C2503.28 517.822 2488.38 533.554 2477.34 553.425C2466.3 573.296 2460.78 595.927 2460.78 621.318C2460.78 646.157 2466.3 668.513 2477.34 688.384C2488.38 707.703 2503.55 723.158 2522.87 734.75C2542.75 745.79 2565.65 751.31 2591.6 751.31C2613.67 751.31 2633.82 745.514 2652.04 733.923C2670.81 722.331 2685.43 706.875 2695.92 687.556C2706.96 667.684 2712.48 645.053 2712.48 619.662C2712.48 593.719 2706.68 571.088 2695.09 551.769C2684.05 531.897 2669.15 516.442 2650.38 505.402C2632.17 493.811 2612.02 488.015 2589.94 488.015Z" fill="url(#paint1_linear_1153_1228)"/>
<defs>
<filter id="filter0_d_1153_1228" x="419.381" y="88.6191" width="258.507" height="405.567" filterUnits="userSpaceOnUse" color-interpolation-filters="sRGB">
<feFlood flood-opacity="0" result="BackgroundImageFix"/>
<feColorMatrix in="SourceAlpha" type="matrix" values="0 0 0 0 0 0 0 0 0 0 0 0 0 0 0 0 0 0 127 0" result="hardAlpha"/>
<feOffset dx="2" dy="2"/>
<feGaussianBlur stdDeviation="1"/>
<feComposite in2="hardAlpha" operator="out"/>
<feColorMatrix type="matrix" values="0 0 0 0 0 0 0 0 0 0 0 0 0 0 0 0 0 0 0.25 0"/>
<feBlend mode="normal" in2="BackgroundImageFix" result="effect1_dropShadow_1153_1228"/>
<feBlend mode="normal" in="SourceGraphic" in2="effect1_dropShadow_1153_1228" result="shape"/>
</filter>
<linearGradient id="paint0_linear_1153_1228" x1="541.854" y1="287.043" x2="691.518" y2="469.75" gradientUnits="userSpaceOnUse">
<stop offset="0.144231" stop-color="#0B8484"/>
<stop offset="0.788462" stop-color="#6DF6B1"/>
</linearGradient>
<linearGradient id="paint1_linear_1153_1228" x1="1058" y1="529" x2="2804.5" y2="527" gradientUnits="userSpaceOnUse">
<stop offset="0.0288462" stop-color="#F6FBFF"/>
<stop offset="0.307692" stop-color="#90F8FF"/>
<stop offset="0.576923" stop-color="#EEEEEE"/>
</linearGradient>
</defs>
</svg>
